<mxfile host="app.diagrams.net" agent="Mozilla/5.0 (Windows NT 10.0; Win64; x64) AppleWebKit/537.36 (KHTML, like Gecko) Chrome/136.0.0.0 Safari/537.36" version="27.0.9">
  <diagram name="Page-1" id="fs7zEqEocok4wqV7YWik">
    <mxGraphModel dx="872" dy="534" grid="1" gridSize="10" guides="1" tooltips="1" connect="1" arrows="1" fold="1" page="1" pageScale="1" pageWidth="850" pageHeight="1100" math="0" shadow="0">
      <root>
        <mxCell id="0" />
        <mxCell id="1" parent="0" />
        <mxCell id="q4rNP5gYNwX9MC71njMD-1" value="New User" style="rhombus;whiteSpace=wrap;html=1;" vertex="1" parent="1">
          <mxGeometry x="195" y="20" width="75" height="60" as="geometry" />
        </mxCell>
        <mxCell id="q4rNP5gYNwX9MC71njMD-2" value="Registration" style="rounded=0;whiteSpace=wrap;html=1;" vertex="1" parent="1">
          <mxGeometry x="310" y="30" width="80" height="40" as="geometry" />
        </mxCell>
        <mxCell id="q4rNP5gYNwX9MC71njMD-3" value="Login" style="rounded=0;whiteSpace=wrap;html=1;" vertex="1" parent="1">
          <mxGeometry x="187.5" y="100" width="82.5" height="40" as="geometry" />
        </mxCell>
        <mxCell id="q4rNP5gYNwX9MC71njMD-6" value="&lt;b&gt;Dashboard&lt;/b&gt;&lt;div&gt;&lt;br&gt;&lt;/div&gt;&lt;div style=&quot;text-align: left;&quot;&gt;1.Assigned Trainings&lt;/div&gt;&lt;div style=&quot;text-align: left;&quot;&gt;2. Assessments List (running, past, upcoming)&lt;/div&gt;" style="whiteSpace=wrap;html=1;aspect=fixed;" vertex="1" parent="1">
          <mxGeometry x="180" y="170" width="122.5" height="122.5" as="geometry" />
        </mxCell>
      </root>
    </mxGraphModel>
  </diagram>
</mxfile>
